<svg width="37" height="36" viewBox="0 0 37 36" fill="none" xmlns="http://www.w3.org/2000/svg">
<rect x="0.699951" y="0.175003" width="35.7" height="35.7" rx="5" fill="#00A6C8"/>
<path fill-rule="evenodd" clip-rule="evenodd" d="M18.5501 23.1796C21.3968 23.1796 23.7046 20.8718 23.7046 18.025C23.7046 15.1782 21.3968 12.8705 18.5501 12.8705C15.7033 12.8705 13.3955 15.1782 13.3955 18.025C13.3955 20.8718 15.7033 23.1796 18.5501 23.1796ZM18.5501 21.4614C20.4479 21.4614 21.9864 19.9228 21.9864 18.025C21.9864 16.1272 20.4479 14.5887 18.5501 14.5887C16.6522 14.5887 15.1137 16.1272 15.1137 18.025C15.1137 19.9228 16.6522 21.4614 18.5501 21.4614Z" fill="white"/>
<path d="M23.7044 12.0114C23.23 12.0114 22.8453 12.396 22.8453 12.8705C22.8453 13.3449 23.23 13.7296 23.7044 13.7296C24.1789 13.7296 24.5635 13.3449 24.5635 12.8705C24.5635 12.396 24.1789 12.0114 23.7044 12.0114Z" fill="white"/>
<path fill-rule="evenodd" clip-rule="evenodd" d="M9.66179 11.3894C9.09998 12.4921 9.09998 13.9355 9.09998 16.8223V19.2277C9.09998 22.1145 9.09998 23.558 9.66179 24.6605C10.156 25.6304 10.9445 26.419 11.9144 26.9132C13.017 27.475 14.4604 27.475 17.3472 27.475H19.7527C22.6395 27.475 24.0829 27.475 25.1855 26.9132C26.1554 26.419 26.944 25.6304 27.4381 24.6605C28 23.558 28 22.1145 28 19.2277V16.8223C28 13.9355 28 12.4921 27.4381 11.3894C26.944 10.4195 26.1554 9.631 25.1855 9.13682C24.0829 8.575 22.6395 8.575 19.7527 8.575H17.3472C14.4604 8.575 13.017 8.575 11.9144 9.13682C10.9445 9.631 10.156 10.4195 9.66179 11.3894ZM19.7527 10.2932H17.3472C15.8755 10.2932 14.875 10.2945 14.1017 10.3577C13.3484 10.4192 12.9632 10.5308 12.6944 10.6677C12.0479 10.9972 11.5222 11.5229 11.1927 12.1695C11.0558 12.4382 10.9442 12.8234 10.8827 13.5767C10.8195 14.35 10.8182 15.3505 10.8182 16.8223V19.2277C10.8182 20.6995 10.8195 21.6999 10.8827 22.4733C10.9442 23.2266 11.0558 23.6118 11.1927 23.8806C11.5222 24.5271 12.0479 25.0528 12.6944 25.3823C12.9632 25.5192 13.3484 25.6308 14.1017 25.6923C14.875 25.7554 15.8755 25.7568 17.3472 25.7568H19.7527C21.2245 25.7568 22.2249 25.7554 22.9983 25.6923C23.7516 25.6308 24.1368 25.5192 24.4055 25.3823C25.0521 25.0528 25.5778 24.5271 25.9072 23.8806C26.0442 23.6118 26.1558 23.2266 26.2173 22.4733C26.2804 21.6999 26.2818 20.6995 26.2818 19.2277V16.8223C26.2818 15.3505 26.2804 14.35 26.2173 13.5767C26.1558 12.8234 26.0442 12.4382 25.9072 12.1695C25.5778 11.5229 25.0521 10.9972 24.4055 10.6677C24.1368 10.5308 23.7516 10.4192 22.9983 10.3577C22.2249 10.2945 21.2245 10.2932 19.7527 10.2932Z" fill="white"/>
</svg>
