<svg width="34" height="34" viewBox="0 0 34 34" fill="none" xmlns="http://www.w3.org/2000/svg">
<rect width="34" height="34" rx="5" fill="#00A6C8"/>
<path fill-rule="evenodd" clip-rule="evenodd" d="M25.9604 8.36737C25.8891 8.15014 25.8033 8.09262 25.67 8.0381C25.3776 7.92652 24.8825 8.09555 24.8825 8.09555C24.8825 8.09555 7.35916 14.5868 6.3579 15.3053C6.14215 15.4596 6.06993 15.5513 6.03424 15.6574C5.86115 16.1666 6.40056 16.3927 6.40056 16.3927L10.917 17.9095C10.917 17.9095 11.0852 17.9353 11.1455 17.8952C12.173 17.2257 21.4833 11.1694 22.0203 10.9661C22.1048 10.9404 22.1675 10.969 22.1511 11.029C21.9361 11.8075 13.8494 19.2121 13.8494 19.2121C13.8498 19.2121 13.8187 19.2518 13.7994 19.2978L13.7888 19.292L13.3675 23.9087C13.3675 23.9087 13.1907 25.3225 14.5632 23.9087C15.5316 22.9096 16.4685 22.0741 16.9373 21.6705C18.4902 22.7753 20.1617 23.9971 20.8832 24.6357C21.2454 24.9561 21.5486 25.0076 21.7979 24.9992C22.4825 24.9734 22.6737 24.1978 22.6737 24.1978C22.6737 24.1978 25.8669 10.9547 25.9736 9.18003C25.9842 9.00548 25.9986 8.8969 25.9998 8.77688C26.0019 8.61078 25.9867 8.44471 25.9604 8.36737Z" fill="white"/>
</svg>
