<svg width="37" height="36" viewBox="0 0 37 36" fill="none" xmlns="http://www.w3.org/2000/svg">
<rect x="0.399902" y="0.175003" width="35.7" height="35.7" rx="5" fill="#00A6C8"/>
<path d="M18.6205 9.63901C19.544 9.625 20.4607 9.63228 21.3768 9.625C21.4073 10.7629 21.8721 11.787 22.6117 12.5456L22.6106 12.5445C23.4066 13.2566 24.4423 13.7183 25.5841 13.7967L25.5999 13.7978V16.6193C24.5213 16.5924 23.507 16.3453 22.5925 15.9207L22.6388 15.9397C22.1965 15.7285 21.8225 15.5117 21.4671 15.2696L21.4964 15.2887C21.4896 17.3331 21.5032 19.3775 21.4823 21.4146C21.4242 22.4527 21.0767 23.3996 20.5193 24.1901L20.5306 24.1727C19.5987 25.4983 18.0891 26.3684 16.3724 26.42H16.3645C16.2951 26.4233 16.2133 26.425 16.131 26.425C15.155 26.425 14.2428 26.155 13.4655 25.686L13.488 25.6989C12.0732 24.8535 11.0972 23.4069 10.9167 21.7244L10.9145 21.7014C10.9003 21.3513 10.8936 21.0011 10.9077 20.6582C11.1841 17.9807 13.4429 15.9095 16.1885 15.9095C16.4971 15.9095 16.7995 15.9358 17.0934 15.9856L17.0618 15.9812C17.0759 17.0171 17.0336 18.0536 17.0336 19.0895C16.795 19.0038 16.5197 18.9539 16.2325 18.9539C15.1787 18.9539 14.2823 19.6229 13.9506 20.5568L13.9455 20.5736C13.8705 20.8129 13.8271 21.0879 13.8271 21.3726C13.8271 21.488 13.8344 21.6023 13.8479 21.7143L13.8468 21.7009C14.0341 22.8472 15.0236 23.7122 16.2167 23.7122C16.2511 23.7122 16.285 23.7117 16.3188 23.71H16.3137C17.1391 23.6853 17.8555 23.2444 18.2606 22.5928L18.2662 22.5827C18.4168 22.3743 18.5201 22.1222 18.5545 21.8482L18.555 21.8404C18.6256 20.5871 18.5973 19.3411 18.6041 18.0877C18.6109 15.2663 18.5973 12.4515 18.6182 9.63733L18.6205 9.63901Z" fill="white"/>
</svg>
