<svg width="34" height="34" viewBox="0 0 34 34" fill="none" xmlns="http://www.w3.org/2000/svg">
<rect width="34" height="34" rx="5" fill="#00A6C8"/>
<path fill-rule="evenodd" clip-rule="evenodd" d="M20.6656 18.5881C20.4664 18.4891 19.4878 18.0096 19.3054 17.9434C19.1227 17.8775 18.99 17.8444 18.8573 18.0427C18.7249 18.241 18.3433 18.6874 18.2271 18.8197C18.1111 18.9518 17.9949 18.9685 17.7957 18.8693C17.5968 18.77 16.9554 18.561 16.1952 17.8857C15.6034 17.3606 15.2037 16.7119 15.0877 16.5136C14.9718 16.3153 15.0754 16.2081 15.1751 16.1091C15.2644 16.0205 15.374 15.878 15.4735 15.762C15.5732 15.6466 15.6062 15.5637 15.6724 15.4316C15.7391 15.2995 15.7059 15.1835 15.6559 15.0845C15.6062 14.9853 15.2081 14.0103 15.0424 13.6137C14.8806 13.2275 14.7168 13.2797 14.5943 13.2734C14.4784 13.2677 14.3457 13.2669 14.213 13.2669C14.0803 13.2666 13.8647 13.3161 13.6822 13.5147C13.4995 13.713 12.9852 14.1921 12.9852 15.1672C12.9852 16.1422 13.6987 17.0841 13.7982 17.2165C13.8979 17.3486 15.2017 19.3498 17.1985 20.2077C17.6738 20.4121 18.0444 20.5338 18.3337 20.6251C18.8103 20.7758 19.2444 20.7547 19.5873 20.7036C19.9697 20.6467 20.765 20.2244 20.931 19.7614C21.0969 19.2986 21.0969 18.9023 21.0469 18.8197C20.9972 18.7369 20.8645 18.6874 20.6656 18.5881ZM17.0334 23.5234H17.0306C15.8427 23.5231 14.6773 23.2056 13.6605 22.605L13.4187 22.4622L10.9127 23.1164L11.5817 20.6847L11.424 20.4353C10.7613 19.3862 10.4113 18.1737 10.4119 16.9285C10.4132 13.2951 13.3836 10.3391 17.0361 10.3391C18.8048 10.3396 20.4672 11.0261 21.7172 12.2716C22.9675 13.5174 23.6555 15.1729 23.6552 16.9337C23.6535 20.5674 20.6829 23.5237 17.0334 23.5234ZM22.6689 11.3253C21.1648 9.82653 19.1645 9.00082 17.0334 9C12.6421 9 9.06843 12.5563 9.06678 16.9282C9.06623 18.3252 9.43297 19.6892 10.13 20.8918L9 25L13.2232 23.8975C14.3866 24.5293 15.6968 24.8622 17.0301 24.8627H17.0334C17.0331 24.8627 17.0339 24.8627 17.0334 24.8627C21.4241 24.8627 24.9981 21.3059 25 16.9342C25.0008 14.8157 24.173 12.8238 22.6689 11.3253Z" fill="white"/>
</svg>
