<svg width="34" height="34" viewBox="0 0 34 34" fill="none" xmlns="http://www.w3.org/2000/svg">
<rect width="34" height="34" rx="5" fill="#00A6C8"/>
<path fill-rule="evenodd" clip-rule="evenodd" d="M25.8164 12.802C25.7313 12.1392 25.4846 11.5091 25.0992 10.9701C24.6217 10.476 23.9738 10.1945 23.2957 10.1866C20.7805 10 17 10 17 10C17 10 13.2213 10 10.7025 10.1866C10.0246 10.1944 9.37699 10.4759 8.89991 10.9701C8.51278 11.5086 8.26564 12.1394 8.1818 12.803C8.06945 13.7958 8.00877 14.794 8 15.7934V17.1926C8.00909 18.1916 8.06908 19.1906 8.1818 20.183C8.26725 20.8472 8.51177 21.4796 8.89446 22.0225C9.44349 22.5224 10.1489 22.8032 10.8824 22.8134C12.3214 22.9534 17.0009 23 17.0009 23C17.0009 23 20.7833 23 23.2985 22.8134C23.9768 22.8053 24.6248 22.5239 25.1028 22.0299C25.4874 21.4903 25.7334 20.8599 25.8182 20.197C25.9309 19.2046 25.9909 18.2056 26 17.2066V15.7925C25.9897 14.7931 25.9285 13.7949 25.8164 12.802ZM15.1884 18.9145V13.6723L20.097 16.3018L15.1884 18.9135V18.9145Z" fill="white"/>
</svg>
