<svg width="198" height="45" viewBox="0 0 198 45" fill="none" xmlns="http://www.w3.org/2000/svg">
<path d="M69.7045 5.72727H74.4659L80.1591 16.0227H80.3864L86.0795 5.72727H90.8409L82.375 20.3182V29H78.1705V20.3182L69.7045 5.72727ZM98.0085 29.3409C96.304 29.3409 94.8267 28.9659 93.5767 28.2159C92.3267 27.4659 91.357 26.4167 90.6676 25.0682C89.9858 23.7197 89.6449 22.1439 89.6449 20.3409C89.6449 18.5379 89.9858 16.9583 90.6676 15.6023C91.357 14.2462 92.3267 13.1932 93.5767 12.4432C94.8267 11.6932 96.304 11.3182 98.0085 11.3182C99.7131 11.3182 101.19 11.6932 102.44 12.4432C103.69 13.1932 104.656 14.2462 105.338 15.6023C106.027 16.9583 106.372 18.5379 106.372 20.3409C106.372 22.1439 106.027 23.7197 105.338 25.0682C104.656 26.4167 103.69 27.4659 102.44 28.2159C101.19 28.9659 99.7131 29.3409 98.0085 29.3409ZM98.0312 26.0455C98.9555 26.0455 99.7282 25.7917 100.349 25.2841C100.971 24.7689 101.433 24.0795 101.736 23.2159C102.046 22.3523 102.202 21.3902 102.202 20.3295C102.202 19.2614 102.046 18.2955 101.736 17.4318C101.433 16.5606 100.971 15.8674 100.349 15.3523C99.7282 14.8371 98.9555 14.5795 98.0312 14.5795C97.0843 14.5795 96.2964 14.8371 95.6676 15.3523C95.0464 15.8674 94.5805 16.5606 94.2699 17.4318C93.9669 18.2955 93.8153 19.2614 93.8153 20.3295C93.8153 21.3902 93.9669 22.3523 94.2699 23.2159C94.5805 24.0795 95.0464 24.7689 95.6676 25.2841C96.2964 25.7917 97.0843 26.0455 98.0312 26.0455ZM120.989 21.6591V11.5455H125.102V29H121.114V25.8977H120.932C120.538 26.875 119.89 27.6742 118.989 28.2955C118.095 28.9167 116.992 29.2273 115.682 29.2273C114.538 29.2273 113.527 28.9735 112.648 28.4659C111.777 27.9508 111.095 27.2045 110.602 26.2273C110.11 25.2424 109.864 24.053 109.864 22.6591V11.5455H113.977V22.0227C113.977 23.1288 114.28 24.0076 114.886 24.6591C115.492 25.3106 116.288 25.6364 117.273 25.6364C117.879 25.6364 118.466 25.4886 119.034 25.1932C119.602 24.8977 120.068 24.4583 120.432 23.875C120.803 23.2841 120.989 22.5455 120.989 21.6591ZM138.048 11.5455V14.7273H128.014V11.5455H138.048ZM130.491 7.36364H134.605V23.75C134.605 24.303 134.688 24.7273 134.855 25.0227C135.029 25.3106 135.257 25.5076 135.537 25.6136C135.817 25.7197 136.128 25.7727 136.469 25.7727C136.726 25.7727 136.961 25.7538 137.173 25.7159C137.393 25.678 137.56 25.6439 137.673 25.6136L138.366 28.8295C138.147 28.9053 137.832 28.9886 137.423 29.0795C137.022 29.1705 136.529 29.2235 135.946 29.2386C134.916 29.2689 133.988 29.1136 133.162 28.7727C132.336 28.4242 131.681 27.8864 131.196 27.1591C130.719 26.4318 130.484 25.5227 130.491 24.4318V7.36364ZM152.614 21.6591V11.5455H156.727V29H152.739V25.8977H152.557C152.163 26.875 151.515 27.6742 150.614 28.2955C149.72 28.9167 148.617 29.2273 147.307 29.2273C146.163 29.2273 145.152 28.9735 144.273 28.4659C143.402 27.9508 142.72 27.2045 142.227 26.2273C141.735 25.2424 141.489 24.053 141.489 22.6591V11.5455H145.602V22.0227C145.602 23.1288 145.905 24.0076 146.511 24.6591C147.117 25.3106 147.913 25.6364 148.898 25.6364C149.504 25.6364 150.091 25.4886 150.659 25.1932C151.227 24.8977 151.693 24.4583 152.057 23.875C152.428 23.2841 152.614 22.5455 152.614 21.6591ZM161.139 29V5.72727H165.253V14.4318H165.423C165.635 14.0076 165.935 13.5568 166.321 13.0795C166.707 12.5947 167.23 12.1818 167.889 11.8409C168.548 11.4924 169.389 11.3182 170.412 11.3182C171.76 11.3182 172.976 11.6629 174.06 12.3523C175.151 13.0341 176.014 14.0455 176.651 15.3864C177.295 16.7197 177.616 18.3561 177.616 20.2955C177.616 22.2121 177.302 23.8409 176.673 25.1818C176.045 26.5227 175.188 27.5455 174.105 28.25C173.022 28.9545 171.795 29.3068 170.423 29.3068C169.423 29.3068 168.594 29.1402 167.935 28.8068C167.276 28.4735 166.745 28.072 166.344 27.6023C165.95 27.125 165.643 26.6742 165.423 26.25H165.185V29H161.139ZM165.173 20.2727C165.173 21.4015 165.332 22.3902 165.651 23.2386C165.976 24.0871 166.442 24.75 167.048 25.2273C167.662 25.697 168.404 25.9318 169.276 25.9318C170.185 25.9318 170.946 25.6894 171.56 25.2045C172.173 24.7121 172.635 24.0417 172.946 23.1932C173.264 22.3371 173.423 21.3636 173.423 20.2727C173.423 19.1894 173.268 18.2273 172.957 17.3864C172.647 16.5455 172.185 15.8864 171.571 15.4091C170.957 14.9318 170.192 14.6932 169.276 14.6932C168.397 14.6932 167.651 14.9242 167.037 15.3864C166.423 15.8485 165.957 16.4962 165.639 17.3295C165.329 18.1629 165.173 19.1439 165.173 20.2727ZM188.841 29.3409C187.091 29.3409 185.58 28.9773 184.307 28.25C183.042 27.5152 182.068 26.4773 181.386 25.1364C180.705 23.7879 180.364 22.2008 180.364 20.375C180.364 18.5795 180.705 17.0038 181.386 15.6477C182.076 14.2841 183.038 13.2235 184.273 12.4659C185.508 11.7008 186.958 11.3182 188.625 11.3182C189.701 11.3182 190.716 11.4924 191.67 11.8409C192.633 12.1818 193.481 12.7121 194.216 13.4318C194.958 14.1515 195.542 15.0682 195.966 16.1818C196.39 17.2879 196.602 18.6061 196.602 20.1364V21.3977H182.295V18.625H192.659C192.652 17.8371 192.481 17.1364 192.148 16.5227C191.814 15.9015 191.348 15.4129 190.75 15.0568C190.159 14.7008 189.47 14.5227 188.682 14.5227C187.841 14.5227 187.102 14.7273 186.466 15.1364C185.83 15.5379 185.333 16.0682 184.977 16.7273C184.629 17.3788 184.451 18.0947 184.443 18.875V21.2955C184.443 22.3106 184.629 23.1818 185 23.9091C185.371 24.6288 185.89 25.1818 186.557 25.5682C187.223 25.947 188.004 26.1364 188.898 26.1364C189.496 26.1364 190.038 26.053 190.523 25.8864C191.008 25.7121 191.428 25.4583 191.784 25.125C192.14 24.7917 192.409 24.3788 192.591 23.8864L196.432 24.3182C196.189 25.3333 195.727 26.2197 195.045 26.9773C194.371 27.7273 193.508 28.3106 192.455 28.7273C191.402 29.1364 190.197 29.3409 188.841 29.3409Z" fill="white"/>
<g filter="url(#filter0_d_87_96)">
<path fill-rule="evenodd" clip-rule="evenodd" d="M49.49 7.97346C49.2536 6.08728 48.5684 4.29427 47.4977 2.76045C46.1713 1.35442 44.3718 0.553529 42.4881 0.530856C35.5015 -3.95519e-08 25 0 25 0C25 0 14.5036 -3.95519e-08 7.50682 0.530856C5.62384 0.553083 3.82497 1.3541 2.49975 2.76045C1.42438 4.29278 0.737892 6.08773 0.505 7.97611C0.192929 10.8012 0.0243568 13.6418 0 16.4857V20.4672C0.02525 23.3099 0.1919 26.1526 0.505 28.9768C0.742349 30.8666 1.42157 32.6662 2.4846 34.211C4.0097 35.6337 5.96909 36.4327 8.00677 36.4618C12.0038 36.86 25.0025 36.9927 25.0025 36.9927C25.0025 36.9927 35.509 36.9927 42.4957 36.4618C44.38 36.4387 46.1801 35.638 47.5078 34.2323C48.5761 32.6966 49.2595 30.9029 49.495 29.0166C49.8081 26.1924 49.9748 23.3497 50 20.507V16.4831C49.9715 13.6391 49.8013 10.7987 49.49 7.97346ZM19.9677 25.367V10.4499L33.6027 17.9323L19.9677 25.3643V25.367Z" fill="#FF0909"/>
</g>
<defs>
<filter id="filter0_d_87_96" x="0" y="0" width="58" height="44.9927" filterUnits="userSpaceOnUse" color-interpolation-filters="sRGB">
<feFlood flood-opacity="0" result="BackgroundImageFix"/>
<feColorMatrix in="SourceAlpha" type="matrix" values="0 0 0 0 0 0 0 0 0 0 0 0 0 0 0 0 0 0 127 0" result="hardAlpha"/>
<feOffset dx="4" dy="4"/>
<feGaussianBlur stdDeviation="2"/>
<feComposite in2="hardAlpha" operator="out"/>
<feColorMatrix type="matrix" values="0 0 0 0 0 0 0 0 0 0 0 0 0 0 0 0 0 0 0.25 0"/>
<feBlend mode="normal" in2="BackgroundImageFix" result="effect1_dropShadow_87_96"/>
<feBlend mode="normal" in="SourceGraphic" in2="effect1_dropShadow_87_96" result="shape"/>
</filter>
</defs>
</svg>
